<svg width="1117" height="858" fill="none" xmlns="http://www.w3.org/2000/svg"><g clip-path="url(#clip0)"><path opacity=".1" d="M1089.16 582.74c-1 .73-1.92 1.44-2.9 2.13a98.055 98.055 0 01-11.33 6.91c-20.58 10.85-45.95 16.15-70.66 19.75-55.42 8.08-112 9.65-168.34 11.19-152.23 4.18-304.83 8.35-456.69-1.28-60-3.8-121.32-10.16-175.69-29.66a315.147 315.147 0 01-22.92-9.22c-15.15-6.81-29.7-15.1-41.8-25-11.37-9.28-20.59-19.94-26.1-32.06-11.49-25.24-5.41-53.59 7.71-78.33a243.4 243.4 0 0118.39-28.77c10.13-13.93 21.3-27.46 31.49-41.38 36.26-49.48 59.92-112.08 26.45-162.83-9.62-14.58-23.52-27.38-31.36-42.6-10-19.47-9.23-41.09-6.05-62.09.413-2.667.85-5.307 1.31-7.92 5.43-31.14 15.65-64.69 47.16-84.13 32.73-20.2 79.21-19.18 119.83-12 63.17 11.28 121.44 34.76 180.33 55.96 58.89 21.2 120.5 40.57 185.22 42.65 57.15 1.84 123.81-11.93 161.74-47.72 36.84-34.76 106.09-37.41 156-16.41 34.26 14.41 59.82 40.37 70.6 69.57a91.374 91.374 0 014.69 18.12c.86 5.653 1.15 11.38.84 17.09a92.64 92.64 0 01-.84 8.37c-8.34 57.62-68.37 103.07-104.86 154.54-17.83 25.14-30.42 55.34-18.16 82.45 18.7 41.31 83.73 56 123 86.74a92.31 92.31 0 0119.3 19.8c19.05 27.36 12.02 64.31-16.36 86.13z" fill="#ACACAC"/><path d="M257.99 324.86s-46-81.52-115.32-105c-29.09-9.86-54.48-28.4-71.84-53.74A237.991 237.991 0 0149.63 128" stroke="#535461" stroke-width="2" stroke-miterlimit="10"/><path d="M6.04 112.91c7.9 7.63 44.68 15.63 44.68 15.63s-9-36.52-16.92-44.19a19.93 19.93 0 00-27.76 28.6v-.04z" fill="url(#paint0_linear)"/><path d="M26.85 179c10.79 2.14 46-11.19 46-11.19s-27.45-25.76-38.25-27.9A19.931 19.931 0 0026.85 179z" fill="url(#paint1_linear)"/><path d="M102.6 250.54c10.4-3.6 34-32.87 34-32.87s-36.68-8.39-47.07-4.79a19.934 19.934 0 00-13.971 17.676A19.933 19.933 0 0087 249.966a19.918 19.918 0 0015.53.574h.07z" fill="url(#paint2_linear)"/><path d="M172.1 291.73c10.86-1.8 39.1-26.65 39.1-26.65s-34.73-14.47-45.59-12.68a19.933 19.933 0 006.49 39.33z" fill="url(#paint3_linear)"/><path d="M103.49 139.27c0 11-19.9 42.93-19.9 42.93s-19.94-31.91-19.95-42.91a19.932 19.932 0 0119.925-20.376 19.924 19.924 0 0118.538 12.613 19.935 19.935 0 011.387 7.763v-.02z" fill="url(#paint4_linear)"/><path d="M184.17 188.54c-3.29 10.5-31.84 35-31.84 35s-9.48-36.45-6.23-47a19.929 19.929 0 0124.703-12.24 19.93 19.93 0 0113.297 24.15l.07.09z" fill="url(#paint5_linear)"/><path d="M256.01 247.09c-1.46 10.91-25.46 39.88-25.46 39.88s-15.5-34.28-14-45.19a19.929 19.929 0 0135.461-9.253 19.93 19.93 0 014.039 14.563h-.04z" fill="url(#paint6_linear)"/><path opacity=".25" d="M6.04 112.91c7.9 7.63 44.68 15.63 44.68 15.63s-9-36.52-16.92-44.19a19.93 19.93 0 00-27.76 28.6v-.04zM26.85 179c10.79 2.14 46-11.19 46-11.19s-27.45-25.76-38.25-27.9A19.931 19.931 0 0026.85 179zm75.75 71.54c10.4-3.6 34-32.87 34-32.87s-36.68-8.39-47.07-4.79a19.934 19.934 0 00-13.971 17.676A19.933 19.933 0 0087 249.966a19.918 19.918 0 0015.53.574h.07zm69.5 41.19c10.86-1.8 39.1-26.65 39.1-26.65s-34.73-14.47-45.59-12.68a19.933 19.933 0 006.49 39.33zm-68.61-152.46c0 11-19.9 42.93-19.9 42.93s-19.94-31.91-19.95-42.91a19.932 19.932 0 0119.925-20.376 19.924 19.924 0 0118.538 12.613 19.935 19.935 0 011.387 7.763v-.02zm80.68 49.27c-3.29 10.5-31.84 35-31.84 35s-9.48-36.45-6.23-47a19.929 19.929 0 0124.703-12.24 19.93 19.93 0 0113.297 24.15l.07.09zm71.84 58.55c-1.46 10.91-25.46 39.88-25.46 39.88s-15.5-34.28-14-45.19a19.929 19.929 0 0135.461-9.253 19.93 19.93 0 014.039 14.563h-.04z" fill="#000"/><path d="M255.34 323.24s-9-93.18-62.88-142.74c-22.59-20.8-38.29-48-43.9-78.24a238.218 238.218 0 01-3.92-43.45" stroke="#535461" stroke-width="2" stroke-miterlimit="10"/><path d="M110.89 27.38c4.12 10.21 34.53 32.36 34.53 32.36s6.55-37.05 2.44-47.26a19.945 19.945 0 00-25.95-11.05 19.94 19.94 0 00-11.05 25.95h.03z" fill="url(#paint7_linear)"/><path d="M103.1 96.23c9 6.33 46.57 8.4 46.57 8.4S135.1 69.97 126.1 63.64a19.945 19.945 0 00-23 32.59z" fill="url(#paint8_linear)"/><path d="M143.41 192.31c11 .93 44.44-16.26 44.44-16.26s-30.13-22.53-41.1-23.45a19.922 19.922 0 00-19.768 10.577 19.938 19.938 0 00-1.296 15.403 19.943 19.943 0 0017.724 13.73z" fill="url(#paint9_linear)"/><path d="M190.25 258.15c10.66 2.76 46.55-8.52 46.55-8.52s-25.89-27.3-36.54-30.06a19.929 19.929 0 00-10 38.58h-.01z" fill="url(#paint10_linear)"/><path d="M189.3 90.97c-4.45 10.06-35.59 31.17-35.59 31.17s-5.3-37.24-.85-47.31a19.94 19.94 0 0111.022-10.767 19.924 19.924 0 0121.821 4.845 19.922 19.922 0 015.429 14.42 19.936 19.936 0 01-1.832 7.642z" fill="url(#paint11_linear)"/><path d="M243.1 168.65c-7.26 8.27-43.29 19.1-43.29 19.1s6.08-37.12 13.35-45.39a19.91 19.91 0 0113.68-6.735 19.923 19.923 0 0119.163 11.08 19.923 19.923 0 01-2.903 21.945z" fill="url(#paint12_linear)"/><path d="M285.1 251.34c-5.76 9.38-39.44 26.14-39.44 26.14s-.28-37.62 5.48-47a19.942 19.942 0 0127.43-6.57 19.942 19.942 0 016.57 27.43h-.04z" fill="url(#paint13_linear)"/><path opacity=".1" d="M408.16 851.7c61.596 0 111.53-6.501 111.53-14.52 0-8.019-49.934-14.52-111.53-14.52-61.596 0-111.53 6.501-111.53 14.52 0 8.019 49.934 14.52 111.53 14.52zm-225.28-9.84c18.711 0 33.88-2.597 33.88-5.8s-15.169-5.8-33.88-5.8c-18.711 0-33.88 2.597-33.88 5.8s15.169 5.8 33.88 5.8z" fill="#CF227A"/><path d="M190.24 771.48s5.49 7.19-2.54 18c-8.03 10.81-14.65 20-12 26.77 0 0 12.11-20.15 22-20.43 9.89-.28 3.4-12.22-7.46-24.34z" fill="#CF227A"/><path opacity=".1" d="M190.24 771.48a8.81 8.81 0 011.12 2.26c9.62 11.3 14.75 21.85 5.5 22.11-8.61.25-18.95 15.65-21.42 19.54.082.301.178.598.29.89 0 0 12.11-20.15 22-20.43 9.89-.28 3.37-12.25-7.49-24.37z" fill="#000"/><path d="M200.45 780.64c0 2.53-.28 4.58-.63 4.58s-.64-2-.64-4.58.36-1.34.71-1.34.56-1.19.56 1.34z" fill="#FFD037"/><path d="M203.96 783.66c-2.22 1.21-4.16 1.94-4.33 1.63-.17-.31 1.5-1.54 3.72-2.75s1.34-.33 1.51 0c.17.33 1.32-.09-.9 1.12z" fill="#FFD037"/><path d="M161.22 771.48s-5.49 7.19 2.54 18c8.03 10.81 14.65 20 12 26.77 0 0-12.11-20.15-22-20.43-9.89-.28-3.38-12.22 7.46-24.34z" fill="#CF227A"/><path opacity=".1" d="M161.22 771.48a8.81 8.81 0 00-1.12 2.26c-9.62 11.3-14.75 21.85-5.5 22.11 8.62.25 18.95 15.65 21.42 19.54-.077.303-.174.6-.29.89 0 0-12.11-20.15-22-20.43-9.89-.28-3.35-12.25 7.49-24.37z" fill="#000"/><path d="M151.01 780.64c0 2.53.28 4.58.63 4.58s.64-2 .64-4.58-.36-1.34-.71-1.34-.56-1.19-.56 1.34z" fill="#FFD037"/><path d="M147.51 783.66c2.22 1.21 4.15 1.94 4.32 1.63.17-.31-1.5-1.54-3.72-2.75s-1.34-.33-1.51 0c-.17.33-1.31-.09.91 1.12z" fill="#FFD037"/><path d="M152.76 815.34s15.36-.48 20-3.77c4.64-3.29 23.62-7.24 24.77-1.95 1.15 5.29 23.08 26.29 5.74 26.43-17.34.14-40.29-2.7-44.91-5.51-4.62-2.81-5.6-15.2-5.6-15.2z" fill="#A8A8A8"/><path opacity=".2" d="M203.57 834.21c-17.34.14-40.29-2.7-44.91-5.51-3.52-2.15-4.92-9.84-5.39-13.38h-.51s1 12.38 5.59 15.2c4.59 2.82 27.57 5.65 44.91 5.51 5 0 6.74-1.82 6.64-4.46-.69 1.62-2.6 2.61-6.33 2.64z" fill="#000"/><path d="M665.7 814.75s-42.28-2.55-37.29 27.08c0 0-1 5.23 3.75 7.61 0 0 .08-2.19 4.34-1.45 1.516.255 3.057.329 4.59.22a9.503 9.503 0 005.62-2.32s11.88-4.9 16.5-24.33c0 0 3.42-4.24 3.29-5.33l-7.14 3s2.44 5.15.52 9.43c0 0-.23-9.24-1.6-9-.28 0-3.71 1.78-3.71 1.78s4.2 9 1 15.48c0 0 1.2-11-2.34-14.83l-5 2.93s4.9 9.26 1.58 16.82c0 0 .85-11.59-2.63-16.11l-4.55 3.55s4.6 9.13 1.79 15.4c0 0-.36-13.49-2.78-14.51 0 0-4 3.51-4.59 5 0 0 3.15 6.62 1.2 10.12 0 0-1.2-9-2.19-9 0 0-4 6-4.38 10 0 0 .18-6.07 3.42-10.61a11.946 11.946 0 00-6.07 3.15s.62-4.21 7-4.58c0 0 3.28-4.52 4.16-4.79 0 0-6.4-.54-10.28 1.18 0 0 3.41-4 11.45-2.17l4.49-3.66s-8.42-1.16-12 .12c0 0 4.12-3.52 13.21-1l4.9-2.92s-7.19-1.55-11.47-1c0 0 4.52-2.44 12.9.2l3.5-1.57s-5.27-1-6.81-1.19c-1.54-.19-1.62-.59-1.62-.59a18.262 18.262 0 019.89 1.1s7.48-2.74 7.35-3.21z" fill="#CF227A"/><path opacity=".1" d="M636.58 857.08c16.524 0 29.92-2.265 29.92-5.06 0-2.795-13.396-5.06-29.92-5.06s-29.92 2.265-29.92 5.06c0 2.795 13.396 5.06 29.92 5.06z" fill="#CF227A"/><path d="M591.63 816.33s-23.84-1.44-21 15.27a4.08 4.08 0 002.12 4.29s0-1.24 2.45-.82c.852.139 1.718.182 2.58.13a5.474 5.474 0 003.17-1.31s6.7-2.77 9.31-13.72c0 0 1.92-2.39 1.85-3l-4 1.71s1.37 2.91.29 5.32c0 0-.13-5.21-.9-5.09-.16 0-2.09 1-2.09 1s2.36 5 .58 8.73c0 0 .67-6.23-1.32-8.37l-2.83 1.66s2.76 5.22.89 9.48c0 0 .48-6.54-1.49-9.08l-2.56 2s2.59 5.15 1 8.68c0 0-.21-7.61-1.57-8.18a15.609 15.609 0 00-2.59 2.79s1.78 3.74.68 5.71c0 0-.68-5.07-1.23-5.09 0 0-2.24 3.36-2.47 5.66a12.149 12.149 0 011.92-6 6.723 6.723 0 00-3.42 1.77s.35-2.38 4-2.58c0 0 1.84-2.55 2.34-2.7 0 0-3.61-.31-5.8.66 0 0 1.93-2.24 6.46-1.22l2.53-2.07s-4.75-.65-6.76.07c0 0 2.32-2 7.45-.54l2.75-1.64a24.686 24.686 0 00-6.46-.56s2.55-1.37 7.27.11l2-.88s-3-.59-3.83-.68c-.83-.09-.92-.33-.92-.33a10.323 10.323 0 015.58.62s4.09-1.53 4.02-1.8z" fill="#CF227A"/><path opacity=".1" d="M575.21 840.2c9.317 0 16.87-1.276 16.87-2.85s-7.553-2.85-16.87-2.85-16.87 1.276-16.87 2.85 7.553 2.85 16.87 2.85z" fill="#CF227A"/><path d="M637 780.92s-28.77-1.74-25.38 18.43a4.925 4.925 0 002.56 5.18s0-1.49 2.95-1c1.031.165 2.078.215 3.12.15a6.589 6.589 0 003.83-1.58s8.09-3.34 11.23-16.57c0 0 2.33-2.88 2.24-3.62l-4.86 2.07s1.66 3.51.36 6.42c0 0-.16-6.29-1.1-6.14-.18 0-2.52 1.21-2.52 1.21s2.86 6.11.7 10.54c0 0 .82-7.52-1.59-10.1l-3.42 2s3.34 6.3 1.08 11.45c0 0 .58-7.89-1.8-11l-3.1 2.41s3.14 6.21 1.23 10.48c0 0-.25-9.18-1.9-9.88 0 0-2.71 2.39-3.12 3.37 0 0 2.15 4.51.81 6.89 0 0-.81-6.11-1.48-6.14 0 0-2.7 4-3 6.83a14.712 14.712 0 012.32-7.22 8.133 8.133 0 00-4.13 2.14s.42-2.87 4.8-3.12c0 0 2.23-3.07 2.83-3.26 0 0-4.36-.36-7 .81 0 0 2.32-2.71 7.8-1.48l3.06-2.49s-5.74-.79-8.17.08c0 0 2.8-2.39 9-.65l3.33-2s-4.89-1-7.8-.67c0 0 3.07-1.66 8.78.13l2.38-1.06s-3.59-.71-4.64-.82c-1.05-.11-1.1-.4-1.1-.4a12.427 12.427 0 016.73.75s5.07-1.82 4.97-2.14z" fill="#CF227A"/><path opacity=".1" d="M617.19 809.73c11.25 0 20.37-1.54 20.37-3.44s-9.12-3.44-20.37-3.44c-11.25 0-20.37 1.54-20.37 3.44s9.12 3.44 20.37 3.44z" fill="#CF227A"/><path d="M1088.1 584.67V95.54H136.75v461.07c12.15 10.14 26.76 18.67 42 25.68a308.011 308.011 0 0023 9.49h875l11.35-7.11z" fill="url(#paint14_linear)"/><path d="M1086.26 584.87V109.54H138.83v448.1c12.1 9.86 26.65 18.15 41.8 25a338.14 338.14 0 0022.92 9.22h871.38l11.33-6.99z" fill="#fff"/><path d="M1086.26 96.93H138.84v25.14h947.42V96.93z" fill="#858585"/><path d="M157.76 116a6.5 6.5 0 100-13 6.5 6.5 0 000 13zm17.5 0a6.5 6.5 0 100-13 6.5 6.5 0 000 13zm17.5 0a6.5 6.5 0 100-13 6.5 6.5 0 000 13z" fill="#fff"/><path d="M537.45 177.32h-156.5v98.34h156.5v-98.34z" fill="#646464"/><path opacity=".2" d="M320.76 177.32h-156.5v98.34h156.5v-98.34zm433.38 0h-156.5v98.34h156.5v-98.34zM320.76 317.91h-156.5v98.34h156.5v-98.34zm216.69 0h-156.5v98.34h156.5v-98.34zm216.69 0h-156.5v98.34h156.5v-98.34zM320.76 458.49h-156.5v98.34h156.5v-98.34zm216.69 0h-156.5v98.34h156.5v-98.34zm216.69 0h-156.5v98.34h156.5v-98.34z" fill="#858585"/><path d="M499.1 263.46l-10.8 3.82-3.92-6.5c-3-5-7.16-11.84-10.23-16.81-5.42-8.74 1.67-22.06 1.67-22.06s1.28-13.37 5.84-17.49c4.56-4.12 5.83 17.49 5.83 17.49 18.31 8.32 8.5 27.89 8.5 27.89l1.78 7.76 1.33 5.9z" fill="#EFB7B9"/><path opacity=".1" d="M499.1 263.46l-10.8 3.82-3.92-6.5v-.57s6.19-4.25 13.41-2.65l1.31 5.9z" fill="#000"/><path d="M481.66 307.26l5.41-4.58-2.71-41.22s14-9.58 24.36 5.41c0 0-.42 9.16 0 11.66s-2.91 5 0 7.49 0 10.83 0 10.83 3.29 5.83 5.37 7.49c2.08 1.66 4.17 15.41 0 18.32s-11.99 9.58-11.99 12.49-10 10-10 10l-8.78-11.61-1.66-26.28z" fill="url(#paint15_linear)"/><path d="M364.66 557.48c-20.18-8.56-15.7-29.47-11.9-40a54.37 54.37 0 012.67-6.24l11.32-6.87s2.31 5.89 4.78 13.79c5.73 18.38 12.32 47.47-6.87 39.32zm27.74 190.79a34.004 34.004 0 00-3 8.42 60.822 60.822 0 00-1.3 14.33c.08 3.33.36 5.51.36 5.51l-22.48 15.46s.13-1.81.35-4.47c.58-7.08 1.79-20.22 2.93-21.92.79-1.18 1.34-5.92 1.69-10.32.35-4.4.49-8.26.49-8.26s27.05-10.14 20.96 1.25zm53.09 11.09s0 4.3-.16 9.3c-.16 5-.46 10.9-1.09 13.65-.58 2.52-.62 7.15-.51 11.42.15 5 .51 9.5.51 9.5s-22.95-21.7-20.61-23.42c.63-.46 1.25-2.31 1.82-4.77.7-3 1.33-7 1.8-10.4.56-4.05.91-7.31.91-7.31l17.33 2.03z" fill="#EFB7B9"/><path opacity=".1" d="M392.4 748.27a34.004 34.004 0 00-3 8.42 183.565 183.565 0 01-18.4-1.41c.34-4.3.49-8.26.49-8.26s27-10.14 20.91 1.25zm53.09 11.09s0 4.3-.16 9.3c-7.16 1.83-14.52-1.83-18.08-4 .56-4.05.91-7.31.91-7.31l17.33 2.01z" fill="#000"/><path d="M492.48 546.66c-9.16 20-12.91 43.72-12.91 43.72l-3.33 20s1.67 8.74 0 12.07-5 8.75-5 8.75 2.5 20.4 0 22.48c-2.5 2.08 0 14.57 0 14.57l-8.33 42-11.66 54.12c-11.24 9.17-26.2-2.49-26.2-2.49l3.3-35.39s5-62 2.92-64.54c-2.08-2.54.83-10.41.83-10.41s2.92-7.5.84-10.41.41-9.16.41-9.16-.83-25.4 1.67-31.23c2.5-5.83 0-41.89 0-41.89l-1-11.23-.58-6.22-.05-.61s-.38 2.49-1 6.35c-1.84 11.75-5.76 36.1-7.31 41.11a53.555 53.555 0 01-4.27 10.41s2.16 12.49 0 15.82-.33 7.08-.33 7.08 2.08 10.41-4.17 14.57 0 6.25 0 6.25-4.58 10-6.24 14.15c-1.66 4.15 0 10 0 10l-3.33 33.72s-2.92 14.15-2.5 23.73c.42 9.58-3.75 31.64-3.75 31.64s-32.06 0-37-3.75c-4.94-3.75 8.25-40.33 8.25-40.33s3.75-64.12 2.91-65.78c-.84-1.66 0-14.16 2.92-16.65 2.92-2.49 0-7.5 0-7.5s-.83-10 0-12.49-.13-10.83-.13-10.83-2.79-20.4-3.2-32.06c-.41-11.66-2.5-37.88-2.5-37.88s2.18-16.22 2.51-23.94c.12-2.84 1.39-6.39 3-9.73a86.826 86.826 0 016.2-10.88s98.65-29.16 102.79-26.26c1.1.77 2.7 6 4.28 13.57 4.4 21.15 8.7 60.85 1.96 75.55z" fill="#444053"/><path d="M431.7 292.19c15.867 0 28.73-12.863 28.73-28.73s-12.863-28.73-28.73-28.73-28.73 12.863-28.73 28.73 12.863 28.73 28.73 28.73z" fill="#A1616A"/><path opacity=".1" d="M490.52 471.13c-3.31 1.7-5.53 2.87-5.53 2.87s-46.63 22.07-59.89 20.82c-10.26-1-36.45-.43-47.86-.15a86.826 86.826 0 016.2-10.88s98.66-29.15 102.8-26.25c1.1.79 2.7 6 4.28 13.59z" fill="#000"/><path d="M411.71 309.34s-26.61 4.2-32.89 8.32c-6.28 4.12-18.72 12.08-18.72 29.15s-2.91 34.56-4.58 39.55c-1.67 4.99 26.23 45.38 26.23 45.38l-10 61.21s40-1.25 53.32 0S485 472.13 485 472.13s27.48-14.57 33.31-15c5.83-.43-11.66-32.06-11.66-32.06s-27.07-51.2-22.49-59.53c4.58-8.33 7.94-20.4 7.94-20.4l-5-42.46s-7.49-2.5-13.74 2.08-27.48 2.08-27.48 2.08l-34.17 2.5z" fill="url(#paint16_linear)"/><path opacity=".1" d="M366.54 383.45l-10.44 2.91-2.89 39.18s3.75 10.41 0 13.74-4.58 74.53-4.58 74.53 12.08 8.74 26.23 2.08c0 0-2.08-7.91 4.17-36.64s6.24-43.3 6.24-43.3 0-35.81 2.92-41.64c2.92-5.83 0-20.4 0-20.4s-5.83-7.91-5.42-10.82c.41-2.91-16.23 20.36-16.23 20.36z" fill="#000"/><path opacity=".1" d="M371.53 518.19a26.594 26.594 0 01-18.77-.68 54.294 54.294 0 012.67-6.24l11.32-6.87s2.35 5.89 4.78 13.79z" fill="#000"/><path d="M365.91 383.45l-10.41 2.91-2.91 39.18s3.75 10.41 0 13.74-4.58 74.53-4.58 74.53 12.09 8.73 26.23 2.04c0 0-2.08-7.91 4.16-36.64s6.25-43.3 6.25-43.3 0-35.81 2.91-41.64c2.91-5.83 0-20.4 0-20.4s-5.83-7.91-5.41-10.82c.42-2.91-16.24 20.4-16.24 20.4z" fill="url(#paint17_linear)"/><path opacity=".1" d="M472.5 389.69s-5.41 46.63-21.24 55.38c0 0 35.39-9.99 21.24-55.38zm-79.52 4.17s19.56 9.57 15 16.23c-4.56 6.66-15-16.23-15-16.23zm0 19.15s12.49 12.91 10 17.49c-2.49 4.58-10-17.49-10-17.49zm100.75-107s4.9 8.32 5.37 13.74c.47 5.42-5.37-13.74-5.37-13.74zm0-11.24s2.46-2.09 8.74 0-8.74 0-8.74 0zm-24.04 243.35a57.906 57.906 0 01-30.45-3.9l-5.25 13.44-.58-6.22c.86-5.22 2.53-10.81 5.83-12.22 0 0 11.56 9.21 30.45 8.9zm-85.41 17.49s25.61 5.31 32.79 4.37l-32.79-4.37zm2.66 6.71s10.93-.47 16.39 1.72l-16.39-1.72zm1.25 4.53a98.077 98.077 0 0015.14 2l-15.14-2zm-.63 57.3c.47-.31 21.86-5.31 24.52-1.72l-24.52 1.72zm0 6.56s18.58-2.19 19.05 0c.47 2.19-19.05 0-19.05 0zm0 5.93s19.83-4.1 22.17-3.1c2.34 1-22.17 3.1-22.17 3.1zm.94 139.9L366.02 792s.13-1.81.35-4.47c5-12.3 11.51-18.79 11.51-18.79 5.07-1.32 8.27-.1 10.26 2.29.08 3.32.36 5.51.36 5.51z" fill="#000"/><path d="M390.69 790.43a55.794 55.794 0 00-4.69 23 35.665 35.665 0 01-4.76 18.51 18.226 18.226 0 01-1.58 2.26s-15.62-.13-21.09-4.66a5.407 5.407 0 01-1.47-1.8c-3.13-6.24 6.09-30.13 6.09-30.13 4.84-18.42 14.67-28.26 14.67-28.26 17.51-4.53 12.83 21.08 12.83 21.08z" fill="#444053"/><path opacity=".1" d="M381.24 831.89a18.226 18.226 0 01-1.58 2.26s-15.62-.13-21.09-4.66c2.69-8.9 11.27-35.83 15.29-31.25 3.78 4.3 6.41 24.99 7.38 33.65z" fill="#000"/><path d="M379.1 799.91l-1.09 40.34h5.24s.85-35.39 3.19-40.34c2.34-4.95-7.34 0-7.34 0z" fill="#444053"/><path opacity=".1" d="M444.24 803.23s-22.95-21.7-20.61-23.42c.63-.46 1.25-2.31 1.82-4.77 4.41-.77 12 1.07 18.28 18.69.15 5 .51 9.5.51 9.5z" fill="#000"/><path d="M447.67 827.43a2.344 2.344 0 01-.55.16c-2.7.47-12.65.2-18.22 0a3.941 3.941 0 01-3.81-3.93c0-1.5 0-3.33-.12-5.28-.26-6.16-1-13.49-3.21-15.14-3.91-3-7-13.18 0-26.07 0 0 13.42-10.25 23.1 20.56 0 0 .94 8.79 5.15 11.91 4.21 3.12-.46 16.9-2.34 17.79z" fill="#444053"/><path opacity=".1" d="M447.1 827.59c-2.7.47-12.65.2-18.22 0a3.941 3.941 0 01-3.81-3.93c0-1.5 0-3.33-.12-5.28 1.69-7.46 4.12-15.14 7.25-16.89.02-.01 9.49-1.08 14.9 26.1z" fill="#000"/><path d="M423.46 800.58l2.52 33.57h3.2v-36.43l-5.72 2.86z" fill="#444053"/><path opacity=".1" d="M431.28 217.68a57.42 57.42 0 00-25.62 8.23c-2 1.21-4 2.68-4.83 4.85-.72 1.88-.42 4-.39 6 .27 17.22-18.93 30.25-18.33 47.46.24 6.83 3.67 13.19 4.3 20 1.05 11.36-5.67 21.81-12.11 31.22a25.86 25.86 0 0018.25-6.05 138.397 138.397 0 012.55 69.75h9.21a7.01 7.01 0 012.69.33 6.764 6.764 0 012.13 1.59c8.61 8.57 14.38 21.24 11.09 32.94l19.6-7.35c4.69-1.76 9.45-3.55 13.53-6.45 4.08-2.9 7.5-7.11 8.36-12.05.53-3 .36-6.58 2.83-8.32a15.418 15.418 0 013.86-1.43c5.38-1.9 7.76-8.12 8.86-13.72a79.011 79.011 0 001.25-20.87c-.87-11.7-4.33-23.58-1.48-35 1.61-6.41 5.19-12.38 5.48-19 .47-10.91-8.06-20.31-9.33-31.16-.89-7.56 1.84-15.21.95-22.77a24.464 24.464 0 00-12.87-18.57c-2.41-1.24-5-2.07-7.38-3.44-5.43-3.15-8.9-8.82-13.83-12.72-4.93-3.9-13.14-5.37-16.85-.3l8.08-3.17z" fill="#000"/><path d="M431.28 216.43a57.42 57.42 0 00-25.62 8.23c-2 1.21-4 2.68-4.83 4.85-.72 1.88-.42 4-.39 6 .27 17.22-18.93 30.25-18.33 47.47.24 6.82 3.67 13.18 4.3 20 1.05 11.36-5.67 21.81-12.11 31.23a26.004 26.004 0 0018.25-6.05 138.342 138.342 0 012.55 69.73h9.21a6.994 6.994 0 012.69.34c.81.377 1.535.914 2.13 1.58 8.61 8.58 14.38 21.24 11.09 32.94l19.6-7.35c4.69-1.76 9.45-3.55 13.53-6.45 4.08-2.9 7.5-7.11 8.36-12.05.53-3 .36-6.58 2.83-8.32a15.418 15.418 0 013.86-1.43c5.38-1.9 7.76-8.12 8.86-13.72a78.999 78.999 0 001.28-20.89c-.87-11.7-4.33-23.58-1.48-35 1.61-6.41 5.19-12.38 5.48-19 .47-10.91-8.06-20.31-9.33-31.16-.89-7.56 1.84-15.2.95-22.77a24.492 24.492 0 00-4.164-10.859 24.494 24.494 0 00-8.706-7.711c-2.41-1.24-5-2.07-7.38-3.43-5.43-3.16-8.9-8.83-13.83-12.73-4.93-3.9-13.14-5.37-16.85-.3l8.05-3.15z" fill="#925978"/><path opacity=".1" d="M400.42 231.35c-.04.385-.06.773-.06 1.16.03-.38.05-.77.06-1.16zm72.68 40.03c.36-5.3 1.54-10.62 1.1-15.9-.33 5.3-1.51 10.62-1.1 15.9zm-86.69 26.35c-.58-6.2-3.47-12-4.15-18.19a22.725 22.725 0 00-.15 3.42c.24 6.75 3.59 13.06 4.27 19.78.165-1.665.175-3.343.03-5.01zm90.69 24.63a42.893 42.893 0 00-1 12.42c.1-2.43.435-4.845 1-7.21 1.61-6.41 5.19-12.38 5.48-19a20.608 20.608 0 00-.16-3.52c-.78 5.95-3.89 11.49-5.32 17.31zm-84.55.54a26.001 26.001 0 01-14.76 6c-1.14 1.78-2.32 3.52-3.49 5.24a26.004 26.004 0 0018.25-6.05 137.983 137.983 0 015.82 37.45 138.299 138.299 0 00-5.82-42.64zm84.74 55.29c-1.1 5.6-3.48 11.82-8.86 13.71-1.347.3-2.646.785-3.86 1.44-2.47 1.74-2.3 5.34-2.83 8.32-.86 4.94-4.27 9.14-8.36 12-4.09 2.86-8.84 4.7-13.53 6.46l-18.7 7a25.828 25.828 0 01-.9 5.55l19.6-7.35c4.69-1.76 9.45-3.55 13.53-6.45 4.08-2.9 7.5-7.11 8.36-12.05.53-3 .36-6.58 2.83-8.32a15.418 15.418 0 013.86-1.43c5.38-1.9 7.76-8.12 8.86-13.72a78.377 78.377 0 001.41-17.7 78.27 78.27 0 01-1.41 12.54zm-68.13 16.35a6.606 6.606 0 00-2.13-1.59 7.154 7.154 0 00-2.69-.34h-8.17c-.32 1.74-.66 3.48-1 5.21h9.21a6.994 6.994 0 012.69.34c.81.377 1.535.914 2.13 1.58 6.3 6.28 11.07 14.74 11.89 23.42 1.01-10.38-4.37-21.06-11.93-28.62zm-45.69 34.08s7.44-3.12 9.1 0c1.66 3.12-9.1 0-9.1 0zm2.63 5.35s7.44-3.12 9.11 0c1.67 3.12-9.11 0-9.11 0z" fill="#000"/><path opacity=".1" d="M827.21 30.22s-38.05-2.29-33.56 24.37c0 0-.89 4.71 3.38 6.85 0 0 .07-2 3.9-1.31 1.364.23 2.75.297 4.13.2a8.569 8.569 0 005.04-2.09s10.69-4.41 14.85-21.89c0 0 3.08-3.82 3-4.8l-6.42 2.75s2.19 4.63.46 8.48c0 0-.2-8.32-1.44-8.12-.25 0-3.33 1.6-3.33 1.6s3.77 8.07.92 13.94c0 0 1.08-9.94-2.1-13.35l-4.54 2.69s4.41 8.33 1.42 15.13c0 0 .77-10.43-2.37-14.49l-4.1 3.19s4.15 8.17 1.65 13.81c0 0-.33-12.15-2.51-13.06 0 0-3.58 3.16-4.12 4.46 0 0 2.83 6 1.07 9.1 0 0-1.08-8.08-2-8.12 0 0-3.57 5.36-3.94 9a19.507 19.507 0 013.07-9.55 10.67 10.67 0 00-5.46 2.84s.55-3.79 6.34-4.13c0 0 2.95-4.06 3.74-4.31 0 0-5.76-.48-9.25 1.07 0 0 3.07-3.58 10.31-2l4-3.3s-7.58-1-10.8.11c0 0 3.7-3.16 11.89-.86l4.4-2.63s-6.46-1.4-10.31-.89c0 0 4.06-2.19 11.6.18l3.15-1.41s-4.74-.93-6.12-1.08c-1.38-.15-1.46-.53-1.46-.53a16.36 16.36 0 018.89 1s6.73-2.43 6.62-2.85zM772.98 8.6s-32 20.71-12.59 39.52c0 0 2.07 4.32 6.78 3.52 0 0-1.12-1.64 2.37-3.37a17.385 17.385 0 003.45-2.29 8.612 8.612 0 002.83-4.67s6-9.9-1-26.44c0 0 .22-4.9-.46-5.62l-3.54 6s4.51 2.43 5.4 6.55c0 0-5.09-6.57-6-5.68-.18.18-1.74 3.27-1.74 3.27s7.83 4.26 9 10.67c0 0-5-8.65-9.61-9.5l-2.08 4.8s8.5 4.1 10.12 11.35c0 0-5.57-8.86-10.5-10.27l-1.4 5s8.2 4.16 9.51 10.2c0 0-7.46-9.58-9.76-9 0 0-1 4.66-.68 6 0 0 5.82 3.12 6.26 6.7 0 0-5.66-5.87-6.39-5.38 0 0 .3 6.43 2.17 9.61a19.524 19.524 0 01-3.18-9.51 10.7 10.7 0 00-2.72 5.52s-1.8-3.38 2.67-7.08c0 0 0-5 .45-5.69 0 0-4.92 3-6.82 6.34 0 0 .36-4.7 7.15-7.68l1.3-5.05s-6.72 3.66-8.63 6.49c0 0 1.11-4.74 9.06-7.74l2-4.73s-6 2.71-8.84 5.4c0 0 2-4.18 9.46-6.73l1.7-3s-4.37 2.06-5.57 2.76c-1.2.7-1.49.44-1.49.44a16.39 16.39 0 017.75-4.47s3.91-5.96 3.57-6.24zm-48.7 24.13s-19.13 33 6.7 40.93c0 0 3.81 2.91 7.64 0 0 0-1.73-.94.59-4.07a17.524 17.524 0 002-3.6 8.636 8.636 0 00.41-5.45s.85-11.54-12.9-23.11c0 0-2-4.46-3-4.79l-.43 7s5.12.12 7.79 3.39c0 0-7.52-3.55-7.9-2.36-.08.24-.07 3.7-.07 3.7s8.99.27 12.99 5.45c0 0-8.4-5.43-12.87-4.11l.32 5.22s9.43-.2 14.16 5.53c0 0-9-5.37-14-4.39l1 5.09s9.2 0 13.1 4.78c0 0-11-5.16-12.79-3.63 0 0 1.21 4.62 2.13 5.69 0 0 6.6.14 8.62 3.13 0 0-7.71-2.67-8.14-1.89 0 0 3.19 5.59 6.3 7.57a19.529 19.529 0 01-7.15-7 10.715 10.715 0 00.08 6.15s-3.14-2.19-.84-7.52c0 0-2.3-4.46-2.17-5.27 0 0-3 4.93-3.2 8.74 0 0-1.82-4.35 2.88-10.08l-1.13-5.1s-4.33 6.31-4.75 9.7c0 0-1.16-4.73 4.57-11l-.38-5.11s-4.14 5.15-5.42 8.82c0 0-.14-4.62 5.37-10.29l.15-3.45s-3 3.81-3.71 5-1.13 1.02-1.13 1.02a16.454 16.454 0 014.88-7.51s.72-7.09.3-7.18z" fill="#CF227A"/><path d="M888.53 408.91a14.309 14.309 0 1011.898 22.26 14.305 14.305 0 002.412-7.95 14.353 14.353 0 00-14.31-14.31zm-41.84-112.29v14.31H861l25.76 52.18-10.77 17.53a13.759 13.759 0 00-1.79 6.8c0 9.58 6.55 14.31 15.43 14.31h83.67v-13.76h-81.92a1.697 1.697 0 01-1.298-.492 1.693 1.693 0 01-.492-1.298 8.989 8.989 0 01.76-1.78l7.15-11.29h53.31a14 14 0 0012.52-7.51l25.77-44.31a8.322 8.322 0 00.72-3.58 6.876 6.876 0 00-2.142-4.914 6.868 6.868 0 00-5.018-1.886H876.75l-6.8-14.31h-23.26zm112.29 112.29a14.309 14.309 0 00-2.778 28.346A14.315 14.315 0 00973.3 423.22a14.351 14.351 0 00-14.32-14.31z" fill="#B6B6B6"/><path d="M940.67 336.21h-12v-12h-9v12h-12v9h12v12h9v-12h12v-9z" fill="#fff"/></g><defs><linearGradient id="paint0_linear" x1="25.443" y1="78.891" x2="25.443" y2="128.54" gradientUnits="userSpaceOnUse"><stop stop-color="#CF227A"/><stop offset="1" stop-color="#782D8F"/></linearGradient><linearGradient id="paint1_linear" x1="42.032" y1="139.608" x2="42.032" y2="179.233" gradientUnits="userSpaceOnUse"><stop stop-color="#CF227A"/><stop offset="1" stop-color="#782D8F"/></linearGradient><linearGradient id="paint2_linear" x1="106.056" y1="211.982" x2="106.056" y2="251.843" gradientUnits="userSpaceOnUse"><stop stop-color="#CF227A"/><stop offset="1" stop-color="#782D8F"/></linearGradient><linearGradient id="paint3_linear" x1="180.062" y1="252.247" x2="180.062" y2="291.996" gradientUnits="userSpaceOnUse"><stop stop-color="#CF227A"/><stop offset="1" stop-color="#782D8F"/></linearGradient><linearGradient id="paint4_linear" x1="83.565" y1="118.914" x2="83.565" y2="182.2" gradientUnits="userSpaceOnUse"><stop stop-color="#CF227A"/><stop offset="1" stop-color="#782D8F"/></linearGradient><linearGradient id="paint5_linear" x1="165.097" y1="163.387" x2="165.097" y2="223.54" gradientUnits="userSpaceOnUse"><stop stop-color="#CF227A"/><stop offset="1" stop-color="#782D8F"/></linearGradient><linearGradient id="paint6_linear" x1="236.319" y1="224.808" x2="236.319" y2="286.97" gradientUnits="userSpaceOnUse"><stop stop-color="#CF227A"/><stop offset="1" stop-color="#782D8F"/></linearGradient><linearGradient id="paint7_linear" x1="129.316" y1="-.014" x2="129.316" y2="59.74" gradientUnits="userSpaceOnUse"><stop stop-color="#CF227A"/><stop offset="1" stop-color="#782D8F"/></linearGradient><linearGradient id="paint8_linear" x1="122.163" y1="59.991" x2="122.163" y2="104.63" gradientUnits="userSpaceOnUse"><stop stop-color="#CF227A"/><stop offset="1" stop-color="#782D8F"/></linearGradient><linearGradient id="paint9_linear" x1="156.28" y1="152.488" x2="156.28" y2="192.346" gradientUnits="userSpaceOnUse"><stop stop-color="#CF227A"/><stop offset="1" stop-color="#782D8F"/></linearGradient><linearGradient id="paint10_linear" x1="206.219" y1="219.01" x2="206.219" y2="258.585" gradientUnits="userSpaceOnUse"><stop stop-color="#CF227A"/><stop offset="1" stop-color="#782D8F"/></linearGradient><linearGradient id="paint11_linear" x1="171.113" y1="62.665" x2="171.113" y2="122.14" gradientUnits="userSpaceOnUse"><stop stop-color="#CF227A"/><stop offset="1" stop-color="#782D8F"/></linearGradient><linearGradient id="paint12_linear" x1="223.931" y1="135.583" x2="223.931" y2="187.75" gradientUnits="userSpaceOnUse"><stop stop-color="#CF227A"/><stop offset="1" stop-color="#782D8F"/></linearGradient><linearGradient id="paint13_linear" x1="266.871" y1="220.965" x2="266.871" y2="277.48" gradientUnits="userSpaceOnUse"><stop stop-color="#CF227A"/><stop offset="1" stop-color="#782D8F"/></linearGradient><linearGradient id="paint14_linear" x1="612.42" y1="591.78" x2="612.42" y2="95.54" gradientUnits="userSpaceOnUse"><stop stop-color="gray" stop-opacity=".25"/><stop offset=".54" stop-color="gray" stop-opacity=".12"/><stop offset="1" stop-color="gray" stop-opacity=".1"/></linearGradient><linearGradient id="paint15_linear" x1="499.078" y1="258.444" x2="499.078" y2="345.15" gradientUnits="userSpaceOnUse"><stop stop-color="#782D8F"/><stop offset="1" stop-color="#CF227A"/></linearGradient><linearGradient id="paint16_linear" x1="437.474" y1="301.999" x2="437.474" y2="493.001" gradientUnits="userSpaceOnUse"><stop stop-color="#782D8F"/><stop offset="1" stop-color="#CF227A"/></linearGradient><linearGradient id="paint17_linear" x1="368.432" y1="362.799" x2="368.432" y2="518.373" gradientUnits="userSpaceOnUse"><stop stop-color="#782D8F"/><stop offset="1" stop-color="#CF227A"/></linearGradient><clipPath id="clip0"><path fill="#fff" d="M0 0h1116.21v857.08H0z"/></clipPath></defs></svg>